<svg width="20" height="20" viewBox="0 0 20 20" fill="none" xmlns="http://www.w3.org/2000/svg">
<path d="M10.0006 9.71329e-09C7.62491 3.50583e-05 5.34647 0.951891 3.66644 2.64622C1.98642 4.34054 1.04239 6.63858 1.04199 9.0349L1.04199 19.7083H15.9106V14.32H18.9587V9.0349C18.9586 7.84837 18.7269 6.67347 18.2767 5.57727C17.8265 4.48108 17.1666 3.48506 16.3348 2.64609C15.5029 1.80712 14.5154 1.14163 13.4286 0.687614C12.3418 0.233597 11.177 -5.50061e-05 10.0006 9.71329e-09V9.71329e-09Z" fill="url(#paint0_linear_2635_107885)"/>
<path d="M6.00873 12.8523C6.34795 12.8523 6.62294 12.575 6.62294 12.2328C6.62294 11.8907 6.34795 11.6133 6.00873 11.6133C5.66952 11.6133 5.39453 11.8907 5.39453 12.2328C5.39453 12.575 5.66952 12.8523 6.00873 12.8523Z" stroke="white" stroke-width="0.7" stroke-miterlimit="10"/>
<path d="M11.4628 7.10331C11.8021 7.10331 12.077 6.82594 12.077 6.48378C12.077 6.14163 11.8021 5.86426 11.4628 5.86426C11.1236 5.86426 10.8486 6.14163 10.8486 6.48378C10.8486 6.82594 11.1236 7.10331 11.4628 7.10331Z" stroke="white" stroke-width="0.7" stroke-miterlimit="10"/>
<path d="M3.45307 9.58085C3.79229 9.58085 4.06727 9.30348 4.06727 8.96132C4.06727 8.61917 3.79229 8.3418 3.45307 8.3418C3.11386 8.3418 2.83887 8.61917 2.83887 8.96132C2.83887 9.30348 3.11386 9.58085 3.45307 9.58085Z" stroke="white" stroke-width="0.7" stroke-miterlimit="10"/>
<path d="M4.87788 5.51737C5.21709 5.51737 5.49208 5.24 5.49208 4.89785C5.49208 4.55569 5.21709 4.27832 4.87788 4.27832C4.53866 4.27832 4.26367 4.55569 4.26367 4.89785C4.26367 5.24 4.53866 5.51737 4.87788 5.51737Z" stroke="white" stroke-width="0.7" stroke-miterlimit="10"/>
<path d="M8.07221 3.783C8.41143 3.783 8.68641 3.50563 8.68641 3.16347C8.68641 2.82132 8.41143 2.54395 8.07221 2.54395C7.733 2.54395 7.45801 2.82132 7.45801 3.16347C7.45801 3.50563 7.733 3.783 8.07221 3.783Z" stroke="white" stroke-width="0.7" stroke-miterlimit="10"/>
<path d="M13.3046 4.2537C13.6438 4.2537 13.9188 3.97633 13.9188 3.63417C13.9188 3.29202 13.6438 3.01465 13.3046 3.01465C12.9654 3.01465 12.6904 3.29202 12.6904 3.63417C12.6904 3.97633 12.9654 4.2537 13.3046 4.2537Z" stroke="white" stroke-width="0.7" stroke-miterlimit="10"/>
<path d="M15.9833 7.15312C16.3226 7.15312 16.5975 6.87574 16.5975 6.53359C16.5975 6.19143 16.3226 5.91406 15.9833 5.91406C15.6441 5.91406 15.3691 6.19143 15.3691 6.53359C15.3691 6.87574 15.6441 7.15312 15.9833 7.15312Z" stroke="white" stroke-width="0.7" stroke-miterlimit="10"/>
<path d="M15.0986 10.4236C15.4378 10.4236 15.7128 10.1463 15.7128 9.8041C15.7128 9.46194 15.4378 9.18457 15.0986 9.18457C14.7594 9.18457 14.4844 9.46194 14.4844 9.8041C14.4844 10.1463 14.7594 10.4236 15.0986 10.4236Z" stroke="white" stroke-width="0.7" stroke-miterlimit="10"/>
<path d="M12.4941 11.6131C12.8333 11.6131 13.1083 11.3357 13.1083 10.9936C13.1083 10.6514 12.8333 10.374 12.4941 10.374C12.1549 10.374 11.8799 10.6514 11.8799 10.9936C11.8799 11.3357 12.1549 11.6131 12.4941 11.6131Z" stroke="white" stroke-width="0.7" stroke-miterlimit="10"/>
<path d="M8.51459 10.7215C8.85381 10.7215 9.1288 10.4441 9.1288 10.1019C9.1288 9.75979 8.85381 9.48242 8.51459 9.48242C8.17538 9.48242 7.90039 9.75979 7.90039 10.1019C7.90039 10.4441 8.17538 10.7215 8.51459 10.7215Z" stroke="white" stroke-width="0.7" stroke-miterlimit="10"/>
<path d="M7.82612 7.64823C8.16533 7.64823 8.44032 7.37086 8.44032 7.02871C8.44032 6.68655 8.16533 6.40918 7.82612 6.40918C7.4869 6.40918 7.21191 6.68655 7.21191 7.02871C7.21191 7.37086 7.4869 7.64823 7.82612 7.64823Z" stroke="white" stroke-width="0.7" stroke-miterlimit="10"/>
<path d="M10.2333 13.4969C10.5726 13.4969 10.8475 13.2195 10.8475 12.8773C10.8475 12.5352 10.5726 12.2578 10.2333 12.2578C9.89413 12.2578 9.61914 12.5352 9.61914 12.8773C9.61914 13.2195 9.89413 13.4969 10.2333 13.4969Z" fill="#0072C6" stroke="white" stroke-width="0.7" stroke-miterlimit="10"/>
<path d="M10.75 12.5306L12.175 11.3906" stroke="white" stroke-width="0.7" stroke-miterlimit="10"/>
<path d="M13.1084 10.9939L14.6316 10.1514" stroke="white" stroke-width="0.7" stroke-miterlimit="10"/>
<path d="M15.5166 9.25971L15.9834 7.15332" stroke="white" stroke-width="0.7" stroke-miterlimit="10"/>
<path d="M3.82227 9.60645L5.68945 11.7376" stroke="white" stroke-width="0.7" stroke-miterlimit="10"/>
<path d="M3.45312 8.34226L4.55869 5.34375" stroke="white" stroke-width="0.7" stroke-miterlimit="10"/>
<path d="M5.2959 4.45144L7.4579 3.50977" stroke="white" stroke-width="0.7" stroke-miterlimit="10"/>
<path d="M8.68652 3.16309L12.7157 3.60914" stroke="white" stroke-width="0.7" stroke-miterlimit="10"/>
<path d="M13.7471 4.00586L15.8599 6.08747" stroke="white" stroke-width="0.7" stroke-miterlimit="10"/>
<path d="M15.3693 6.53296L12.0771 6.4834" stroke="white" stroke-width="0.7" stroke-miterlimit="10"/>
<path d="M11.6826 5.88873L12.911 4.10449" stroke="white" stroke-width="0.7" stroke-miterlimit="10"/>
<path d="M7.82715 6.40964L8.34308 3.60938" stroke="white" stroke-width="0.7" stroke-miterlimit="10"/>
<path d="M8.44043 7.02858L10.8972 6.68164" stroke="white" stroke-width="0.7" stroke-miterlimit="10"/>
<path d="M7.21129 7.0296L5.44238 5.29492" stroke="white" stroke-width="0.7" stroke-miterlimit="10"/>
<path d="M11.6348 7.07812L12.2244 10.4484" stroke="white" stroke-width="0.7" stroke-miterlimit="10"/>
<path d="M9.12891 10.1016L11.8805 10.9937" stroke="white" stroke-width="0.7" stroke-miterlimit="10"/>
<path d="M8.93164 9.50692L11.1919 6.92969" stroke="white" stroke-width="0.7" stroke-miterlimit="10"/>
<path d="M8.2942 9.65583L8.09766 7.57422" stroke="white" stroke-width="0.7" stroke-miterlimit="10"/>
<path d="M7.40865 7.32617L4.06738 8.76348" stroke="white" stroke-width="0.7" stroke-miterlimit="10"/>
<path d="M3.91895 9.30859L7.89899 10.1016" stroke="white" stroke-width="0.7" stroke-miterlimit="10"/>
<path d="M14.5821 9.30916L11.9287 6.83105" stroke="white" stroke-width="0.7" stroke-miterlimit="10"/>
<path d="M6.00879 15.0908L6.0088 12.8525" stroke="white" stroke-width="0.7" stroke-miterlimit="10"/>
<path d="M6.52344 11.7869L8.0958 10.5479" stroke="white" stroke-width="0.7" stroke-miterlimit="10"/>
<path d="M8.51465 10.7217L9.86589 12.6298" stroke="white" stroke-width="0.7" stroke-miterlimit="10"/>
<path d="M6.00873 15.7107C6.34795 15.7107 6.62294 15.4334 6.62294 15.0912C6.62294 14.7491 6.34795 14.4717 6.00873 14.4717C5.66952 14.4717 5.39453 14.7491 5.39453 15.0912C5.39453 15.4334 5.66952 15.7107 6.00873 15.7107Z" fill="#0072C6" stroke="white" stroke-width="0.7" stroke-miterlimit="10"/>
<defs>
<linearGradient id="paint0_linear_2635_107885" x1="15.702" y1="21.4656" x2="4.74206" y2="4.84128" gradientUnits="userSpaceOnUse">
<stop stop-color="#0078D4"/>
<stop offset="0.16" stop-color="#1380DA"/>
<stop offset="0.53" stop-color="#3C91E5"/>
<stop offset="0.82" stop-color="#559CEC"/>
<stop offset="1" stop-color="#5EA0EF"/>
</linearGradient>
</defs>
</svg>
