<svg width="20" height="20" viewBox="0 0 20 20" fill="none" xmlns="http://www.w3.org/2000/svg">
<path d="M19.3333 0H0.666667C0.298477 0 0 0.323069 0 0.721595V13.7103C0 14.1088 0.298477 14.4319 0.666667 14.4319H19.3333C19.7015 14.4319 20 14.1088 20 13.7103V0.721595C20 0.323069 19.7015 0 19.3333 0Z" fill="url(#paint0_linear_84_38646)"/>
<path d="M18.522 1.20251H1.47751C1.275 1.20251 1.11084 1.3802 1.11084 1.59939V12.8322C1.11084 13.0514 1.275 13.2291 1.47751 13.2291H18.522C18.7245 13.2291 18.8886 13.0514 18.8886 12.8322V1.59939C18.8886 1.3802 18.7245 1.20251 18.522 1.20251Z" fill="white"/>
<path d="M13.3333 5.11121V9.30848L10 11.4252V7.21586L13.3333 5.11121Z" fill="#0078D4"/>
<path d="M13.3332 5.111L9.99984 7.22768L6.6665 5.111L9.99984 3.00635L13.3332 5.111Z" fill="#83B9F9"/>
<path d="M9.99984 7.22788V11.4252L6.6665 9.30848V5.11121L9.99984 7.22788Z" fill="#5EA0EF"/>
<path opacity="0.2" d="M6.6665 9.30857L9.99984 7.21594V11.4252L6.6665 9.30857Z" fill="#83B9F9"/>
<path opacity="0.2" d="M13.3333 9.30857L10 7.21594V11.4252L13.3333 9.30857Z" fill="#5EA0EF"/>
<path d="M14 18.7977C12.0334 18.4609 11.9556 16.9095 11.9556 14.432H8.03335C8.03335 16.9095 7.95558 18.4609 5.98891 18.7977C5.71589 18.8304 5.46373 18.9714 5.28111 19.1935C5.09849 19.4156 4.99835 19.703 5.00002 20.0003H15C15.0014 19.7011 14.8997 19.4121 14.7148 19.1898C14.5299 18.9674 14.275 18.8276 14 18.7977V18.7977Z" fill="url(#paint1_linear_84_38646)"/>
<defs>
<linearGradient id="paint0_linear_84_38646" x1="10" y1="14.4319" x2="10" y2="0" gradientUnits="userSpaceOnUse">
<stop stop-color="#0078D4"/>
<stop offset="0.82" stop-color="#5EA0EF"/>
</linearGradient>
<linearGradient id="paint1_linear_84_38646" x1="10" y1="20.0003" x2="10" y2="14.432" gradientUnits="userSpaceOnUse">
<stop stop-color="#1490DF"/>
<stop offset="0.98" stop-color="#1F56A3"/>
</linearGradient>
</defs>
</svg>
