<svg width="20" height="20" viewBox="0 0 20 20" fill="none" xmlns="http://www.w3.org/2000/svg">
<path d="M9.9554 16.5555C14.5578 16.5555 18.2887 15.0233 18.2887 13.1333C18.2887 11.2432 14.5578 9.71106 9.9554 9.71106C5.35303 9.71106 1.62207 11.2432 1.62207 13.1333C1.62207 15.0233 5.35303 16.5555 9.9554 16.5555Z" fill="#76BC2D"/>
<path d="M10.1666 13.8556C11.6946 13.8556 12.9332 13.5173 12.9332 13.1C12.9332 12.6828 11.6946 12.3445 10.1666 12.3445C8.63858 12.3445 7.3999 12.6828 7.3999 13.1C7.3999 13.5173 8.63858 13.8556 10.1666 13.8556Z" fill="#5E9624"/>
<path d="M9.9554 8.96664C14.5578 8.96664 18.2887 7.43446 18.2887 5.54441C18.2887 3.65437 14.5578 2.12219 9.9554 2.12219C5.35303 2.12219 1.62207 3.65437 1.62207 5.54441C1.62207 7.43446 5.35303 8.96664 9.9554 8.96664Z" fill="url(#paint0_linear_84_38675)"/>
<path d="M10.1666 6.2555C11.6946 6.2555 12.9332 5.91722 12.9332 5.49994C12.9332 5.08266 11.6946 4.74438 10.1666 4.74438C8.63858 4.74438 7.3999 5.08266 7.3999 5.49994C7.3999 5.91722 8.63858 6.2555 10.1666 6.2555Z" fill="#005BA1"/>
<path d="M10.0002 16.4889C14.6113 16.4889 18.3336 14.9555 18.3336 13.0667V15.0889C18.178 16.9222 14.5113 18.4222 10.0002 18.4222C5.48912 18.4222 1.6669 16.8889 1.6669 15V13.0667C1.62245 14.9555 5.35579 16.4889 10.0002 16.4889Z" fill="#5E9624"/>
<path d="M10.0002 8.8889C14.6113 8.8889 18.3336 7.35556 18.3336 5.46667V7.4889C18.178 9.32223 14.5113 10.8222 10.0002 10.8222C5.48912 10.8222 1.6669 9.2889 1.6669 7.40001V5.46667C1.62245 7.35556 5.35579 8.8889 10.0002 8.8889Z" fill="#0078D4"/>
<defs>
<linearGradient id="paint0_linear_84_38675" x1="6.12207" y1="-3.09447" x2="18.3982" y2="5.30179" gradientUnits="userSpaceOnUse">
<stop stop-color="#0078D4"/>
<stop offset="0.02" stop-color="#0D7ED8"/>
<stop offset="0.08" stop-color="#2B8AE0"/>
<stop offset="0.15" stop-color="#4194E7"/>
<stop offset="0.22" stop-color="#519BEB"/>
<stop offset="0.29" stop-color="#5B9FEE"/>
<stop offset="0.4" stop-color="#5EA0EF"/>
<stop offset="0.55" stop-color="#5B9FEE"/>
<stop offset="0.68" stop-color="#509AEB"/>
<stop offset="0.8" stop-color="#3F92E6"/>
<stop offset="0.91" stop-color="#2688DF"/>
<stop offset="0.99" stop-color="#127FD9"/>
</linearGradient>
</defs>
</svg>
