<svg width="20" height="20" viewBox="0 0 20 20" fill="none" xmlns="http://www.w3.org/2000/svg">
<path fill-rule="evenodd" clip-rule="evenodd" d="M0.800781 14.5486H10.108L19.2007 5.45081H0.800781V14.5486Z" fill="#002169"/>
<path fill-rule="evenodd" clip-rule="evenodd" d="M11.7162 7.16875H9.91915V11.4627L8.33665 7.16875H6.78097L5.43987 10.7649C5.30576 9.85247 4.36698 9.55726 3.61597 9.31573C3.13317 9.1547 2.62355 8.91317 2.62355 8.67163C2.62355 8.45694 2.89177 8.26908 3.45503 8.29591C3.83054 8.32275 4.15241 8.34959 4.76932 8.6448L5.3594 7.54447C4.76932 7.24926 3.96465 7.0614 3.32092 7.0614C2.54308 7.0614 1.89935 7.30294 1.49702 7.73233C1.2288 8.0007 1.06787 8.37642 1.06787 8.77898C1.06787 9.34256 1.25563 9.71829 1.68478 10.0403C2.03347 10.3087 2.51626 10.4697 2.91859 10.6039C3.42821 10.7649 3.83054 10.8991 3.83054 11.1943C3.83054 11.3017 3.7769 11.409 3.72325 11.4895C3.58914 11.6237 3.40139 11.6774 3.13317 11.6774C2.62355 11.6774 2.24804 11.5969 1.63113 11.248L1.06787 12.3483C1.68478 12.6972 2.38215 12.8851 3.10635 12.8851H3.18681C3.83054 12.8851 4.34016 12.6972 4.74249 12.3483C4.76932 12.3215 4.79614 12.3215 4.79614 12.2947L4.60838 12.7777H6.24453L6.51275 11.9458C6.80779 12.0531 7.12966 12.1068 7.47834 12.1068C7.82703 12.1068 8.14889 12.0531 8.41712 11.9726L8.68534 12.8046H11.3675V11.0601H11.9576C13.3792 11.0601 14.2107 10.3355 14.2107 9.12787C14.2643 7.78601 13.4328 7.16875 11.7162 7.16875ZM7.53199 10.8454C7.31741 10.8454 7.12966 10.8186 6.9419 10.7381L7.50517 8.94001L8.06843 10.7649C7.93432 10.8186 7.74656 10.8454 7.53199 10.8454ZM11.8235 9.7988H11.4212V8.34959H11.8235C12.36 8.34959 12.7891 8.53745 12.7891 9.07419C12.7891 9.63777 12.36 9.7988 11.8235 9.7988Z" fill="white"/>
<path d="M12.3334 13.9583C12.3334 13.69 12.5479 13.4753 12.8162 13.4753C13.0844 13.4753 13.299 13.69 13.299 13.9583C13.299 14.2535 13.0844 14.4414 12.8162 14.4414C12.5479 14.4414 12.3334 14.2535 12.3334 13.9583ZM12.8162 14.5488C13.138 14.5488 13.4062 14.3072 13.4062 13.9583C13.4062 13.6095 13.138 13.3679 12.8162 13.3679C12.4943 13.3679 12.2261 13.6095 12.2261 13.9583C12.2261 14.3072 12.4943 14.5488 12.8162 14.5488ZM12.682 14.012H12.7893L12.9771 14.3072H13.0844L12.8966 14.012C13.0039 14.012 13.0844 13.9583 13.0844 13.8242C13.0844 13.69 13.0039 13.6363 12.843 13.6363H12.5748V14.3072H12.682V14.012ZM12.682 13.9047V13.69H12.8162C12.8966 13.69 12.9503 13.7168 12.9503 13.7973C12.9503 13.9047 12.8698 13.9047 12.7893 13.9047H12.682V13.9047Z" fill="#002169"/>
</svg>
