<svg width="20" height="20" viewBox="0 0 20 20" fill="none" xmlns="http://www.w3.org/2000/svg">
<path d="M14.8599 18.3062H5.18874L0.416992 10.0239L5.18874 1.69373H14.8599L19.5837 10.0239L14.8599 18.3062Z" fill="#0079D6"/>
<path d="M12.2415 8.1311H7.7002V9.0205H12.2415V8.1311Z" fill="white"/>
<path d="M12.2415 9.75916H7.7002V10.6486H12.2415V9.75916Z" fill="white"/>
<path d="M12.2415 11.3015H7.7002V12.1909H12.2415V11.3015Z" fill="white"/>
<path d="M12.8239 4.87512H6.52183C6.12119 4.87512 5.73696 5.03426 5.45367 5.31756C5.17037 5.60085 5.01123 5.98508 5.01123 6.38572V13.6312C5.01123 13.8295 5.05032 14.0259 5.12624 14.2091C5.20217 14.3923 5.31347 14.5588 5.45375 14.699C5.59403 14.8392 5.76057 14.9504 5.94384 15.0263C6.12711 15.1021 6.32349 15.141 6.52183 15.1409H13.446C13.8464 15.1409 14.2304 14.9819 14.5135 14.6987C14.7967 14.4156 14.9557 14.0316 14.9557 13.6312V6.94781L12.8239 4.87512ZM13.9763 13.7751C13.9763 13.9115 13.9222 14.0423 13.8258 14.1387C13.7294 14.2351 13.5986 14.2892 13.4622 14.2892H6.44129C6.30494 14.2892 6.17418 14.2351 6.07776 14.1387C5.98135 14.0423 5.92719 13.9115 5.92719 13.7751V6.30518C5.92719 6.16883 5.98135 6.03807 6.07776 5.94165C6.17418 5.84524 6.30494 5.79108 6.44129 5.79108H12.3689V7.47736H13.9763V13.7751Z" fill="white"/>
</svg>
