<svg width="20" height="20" viewBox="0 0 20 20" fill="none" xmlns="http://www.w3.org/2000/svg">
<path d="M7.23193 3.41026C7.3315 3.11525 7.60816 2.91663 7.91952 2.91663H12.4784L7.74656 16.9369C7.64699 17.2319 7.37033 17.4305 7.05897 17.4305H3.51093C3.01446 17.4305 2.66458 16.9432 2.82334 16.4728L7.23193 3.41026Z" fill="url(#paint0_linear_84_38592)"/>
<path d="M14.5198 12.3507H7.33505C7.03317 12.3507 6.88741 12.7205 7.10811 12.9265L11.7248 17.2354C11.8592 17.3608 12.0361 17.4306 12.22 17.4306H16.2881L14.5198 12.3507Z" fill="#0078D4"/>
<path d="M12.4783 2.91663H7.39844L2.5 17.4305H7.57986L8.62287 14.3401L11.934 17.4305H16.2882L14.5199 12.3507H9.29431L12.4783 2.91663Z" fill="url(#paint1_linear_84_38592)"/>
<path d="M13.7336 3.41026C13.634 3.11525 13.3574 2.91663 13.046 2.91663H7.94287H7.96615C8.27751 2.91663 8.55418 3.11525 8.65374 3.41026L13.0623 16.4728C13.2211 16.9432 12.8712 17.4305 12.3747 17.4305H12.297H17.4546C17.9511 17.4305 18.301 16.9432 18.1422 16.4728L13.7336 3.41026Z" fill="url(#paint2_linear_84_38592)"/>
<defs>
<linearGradient id="paint0_linear_84_38592" x1="7.88814" y1="3.419" x2="3.15449" y2="17.4033" gradientUnits="userSpaceOnUse">
<stop stop-color="#114A8B"/>
<stop offset="1" stop-color="#0669BC"/>
</linearGradient>
<linearGradient id="paint1_linear_84_38592" x1="11.6747" y1="12.3545" x2="10.5523" y2="12.7374" gradientUnits="userSpaceOnUse">
<stop stop-opacity="0.3"/>
<stop offset="0.0711768" stop-opacity="0.2"/>
<stop offset="0.321031" stop-opacity="0.1"/>
<stop offset="0.623053" stop-opacity="0.05"/>
<stop offset="1" stop-opacity="0"/>
</linearGradient>
<linearGradient id="paint2_linear_84_38592" x1="10.8896" y1="3.41902" x2="16.0856" y2="17.2626" gradientUnits="userSpaceOnUse">
<stop stop-color="#3CCBF4"/>
<stop offset="1" stop-color="#2892DF"/>
</linearGradient>
</defs>
</svg>
