<svg width="20" height="20" viewBox="0 0 20 20" fill="none" xmlns="http://www.w3.org/2000/svg">
<g clip-path="url(#clip0_82_35826)">
<g clip-path="url(#clip1_82_35826)">
<path fill-rule="evenodd" clip-rule="evenodd" d="M12.8001 1.76673C13.289 1.76673 13.7223 2.13339 13.8779 2.66673C14.0334 3.20006 14.9445 6.50006 14.9445 6.50006V13.0556H11.6445L11.7112 1.75562H12.8001V1.76673Z" fill="url(#paint0_linear_82_35826)"/>
<path d="M17.6444 6.88889C17.6444 6.65556 17.4555 6.47778 17.2333 6.47778H15.2888C13.9221 6.47778 12.811 7.58889 12.811 8.95556V13.0667H15.1666C16.5333 13.0667 17.6444 11.9556 17.6444 10.5889V6.88889Z" fill="url(#paint1_linear_82_35826)"/>
<path fill-rule="evenodd" clip-rule="evenodd" d="M12.8003 1.7666C12.4225 1.7666 12.1225 2.0666 12.1225 2.44438L12.0559 14.9222C12.0559 16.7444 10.5781 18.2222 8.75586 18.2222H2.76697C2.47808 18.2222 2.28919 17.9444 2.37808 17.6777L7.17808 3.97771C7.64475 2.65549 8.88919 1.7666 10.2892 1.7666H12.8114H12.8003Z" fill="url(#paint2_linear_82_35826)"/>
</g>
</g>
<defs>
<linearGradient id="paint0_linear_82_35826" x1="14.1779" y1="13.3001" x2="11.4001" y2="2.17784" gradientUnits="userSpaceOnUse">
<stop stop-color="#712575"/>
<stop offset="0.09" stop-color="#9A2884"/>
<stop offset="0.18" stop-color="#BF2C92"/>
<stop offset="0.27" stop-color="#DA2E9C"/>
<stop offset="0.34" stop-color="#EB30A2"/>
<stop offset="0.4" stop-color="#F131A5"/>
<stop offset="0.5" stop-color="#EC30A3"/>
<stop offset="0.61" stop-color="#DF2F9E"/>
<stop offset="0.72" stop-color="#C92D96"/>
<stop offset="0.83" stop-color="#AA2A8A"/>
<stop offset="0.95" stop-color="#83267C"/>
<stop offset="1" stop-color="#712575"/>
</linearGradient>
<linearGradient id="paint1_linear_82_35826" x1="15.2333" y1="2.00001" x2="15.2333" y2="17.6889" gradientUnits="userSpaceOnUse">
<stop stop-color="#DA7ED0"/>
<stop offset="0.08" stop-color="#B17BD5"/>
<stop offset="0.19" stop-color="#8778DB"/>
<stop offset="0.3" stop-color="#6276E1"/>
<stop offset="0.41" stop-color="#4574E5"/>
<stop offset="0.54" stop-color="#2E72E8"/>
<stop offset="0.67" stop-color="#1D71EB"/>
<stop offset="0.81" stop-color="#1471EC"/>
<stop offset="1" stop-color="#1171ED"/>
</linearGradient>
<linearGradient id="paint2_linear_82_35826" x1="14.2892" y1="2.35549" x2="3.88919" y2="19.0333" gradientUnits="userSpaceOnUse">
<stop stop-color="#DA7ED0"/>
<stop offset="0.05" stop-color="#B77BD4"/>
<stop offset="0.11" stop-color="#9079DA"/>
<stop offset="0.18" stop-color="#6E77DF"/>
<stop offset="0.25" stop-color="#5175E3"/>
<stop offset="0.33" stop-color="#3973E7"/>
<stop offset="0.42" stop-color="#2772E9"/>
<stop offset="0.54" stop-color="#1A71EB"/>
<stop offset="0.68" stop-color="#1371EC"/>
<stop offset="1" stop-color="#1171ED"/>
</linearGradient>
<clipPath id="clip0_82_35826">
<rect width="20" height="20" fill="white"/>
</clipPath>
<clipPath id="clip1_82_35826">
<rect width="20" height="20" fill="white"/>
</clipPath>
</defs>
</svg>
